<svg
            xmlns="http://www.w3.org/2000/svg"
            xmlns:xlink="http://www.w3.org/1999/xlink"
            fill="#fff"
            height="40px"
            width="40px"
            version="1.1"
            id="Layer_1"
            viewBox="0 0 512 512"
            xml:space="preserve"
          >
            <g>
              <g>
                <g>
                  <path
                    d="M357.136,164.871H132.19c-4.535,0-8.21,3.676-8.21,8.21v165.836c0,4.534,3.675,8.21,8.21,8.21h224.947     c4.535,0,8.21-3.676,8.21-8.21V173.082C365.346,168.547,361.672,164.871,357.136,164.871z M149.158,310.34l-8.759,8.757V192.902     l8.759,8.758V310.34z M152.01,330.708l8.759-8.758h167.789l8.757,8.758H152.01z M165.579,305.53v-99.06h158.17v99.06H165.579z      M328.557,190.049H160.769l-8.757-8.757h185.305L328.557,190.049z M348.926,319.097l-8.758-8.757V201.662l8.758-8.757V319.097z"
                  />
                  <path
                    d="M98.657,202.462H8.21c-4.535,0-8.21,3.676-8.21,8.21v128.247c0,4.534,3.675,8.21,8.21,8.21h90.447     c4.535,0,8.21-3.676,8.21-8.21V210.672C106.867,206.138,103.193,202.462,98.657,202.462z M25.178,310.34l-8.758,8.757v-88.604     l8.758,8.757V310.34z M28.032,330.708l8.758-8.758h33.289l8.757,8.758H28.032z M41.598,305.531V244.06h23.671v61.471H41.598z      M70.078,227.639H36.789l-8.758-8.757h50.804L70.078,227.639z M90.447,319.097l-8.757-8.757v-71.089l8.757-8.757V319.097z"
                  />
                  <path
                    d="M503.79,202.462H387.7c-4.535,0-8.21,3.676-8.21,8.21v128.247c0,4.534,3.675,8.21,8.21,8.21h116.09     c4.535,0,8.21-3.676,8.21-8.21V210.672C512,206.138,508.324,202.462,503.79,202.462z M404.668,310.341l-8.759,8.757v-88.607     l8.759,8.759V310.341z M407.521,330.708l8.757-8.758h58.932l8.757,8.758H407.521z M421.089,305.531V244.06h49.313v61.471H421.089     z M475.211,227.639h-58.932l-8.757-8.757h76.447L475.211,227.639z M495.58,319.097l-8.758-8.757v-71.089l8.758-8.757V319.097z"
                  />
                </g>
              </g>
            </g>
          </svg>