<svg
            xmlns="http://www.w3.org/2000/svg"
            xmlns:xlink="http://www.w3.org/1999/xlink"
            fill="#fff"
            height="40px"
            width="40px"
            version="1.1"
            id="Layer_1"
            viewBox="0 0 512 512"
            xml:space="preserve"
          >
            <g>
              <g>
                <path
                  d="M162.103,97.422c-26.321,0-47.841,21.414-47.974,47.733l-0.142,28.433c5.544-1.34,9.488-1.229,12.481-1.229l8.068-34.268    c1.322-5.615,4.332-10.692,8.625-14.546c22.88-19.896,30.988-26.123,30.988-26.123H162.103z"
                />
              </g>
            </g>
            <g>
              <g>
                <path
                  d="M402.939,93.882c-7.899-7.937-20.735-7.966-28.67-0.069l-44.392,44.18l-27.565-26.023    c-9.937-9.382-22.936-14.549-36.601-14.549h-15.554c-2.343,6.121-22.265,58.168-25.13,65.654l5.926-27.911    c0.416-1.96,0.113-4.005-0.851-5.76l-8.137-14.799l7.234-13.156c1.077-1.959-0.343-4.364-2.581-4.364h-19.854    c-2.236,0-3.66,2.403-2.581,4.364l0.083,0.151c0.943,0.805,1.849,1.676,2.7,2.624c9.772,10.885,10.366,28.653-2.704,40.386    l3.295,18.464l-5.646-16.353l-14.415,12.94l-2.989,12.695c9.532,0,76.482,0,85.375,0v-28.925c0-1.088,0.647-2.072,1.646-2.504    c0.999-0.43,2.159-0.227,2.951,0.521l32.738,30.907c11.97,0,22.603,3.1,32.004,12.031c0,0,23.021-21.337,63.65-61.839    C410.807,114.654,410.838,101.818,402.939,93.882z"
                />
              </g>
            </g>
            <g>
              <g>
                <path
                  d="M216.691,0c-23.204,0-42.015,18.811-42.015,42.015c-0.001,23.244,18.876,42.016,42.015,42.016    c22.982,0,42.015-18.628,42.015-42.015C258.705,18.811,239.894,0,216.691,0z"
                />
              </g>
            </g>
            <g>
              <g>
                <path
                  d="M309.16,194.957H161.775c3.889-16.517,6.724-28.563,10.442-44.353l21.277-19.101c4.644-4.169,5.029-11.312,0.86-15.956    c-4.169-4.644-11.312-5.029-15.956-0.86l-23.916,21.47c-1.718,1.542-2.921,3.572-3.451,5.819    c-1.745,7.415-10.751,45.668-12.473,52.981h-14.312c-11.649,0-21.09,9.443-21.09,21.091v4.356c0,11.649,9.443,21.09,21.09,21.09    l32.85,262.826c0.547,4.383,4.271,7.68,8.688,7.68c22.401,0,78.984,0,101.836,0c4.426,0,8.139-3.288,8.687-7.68l32.85-262.826    c11.649,0,21.09-9.443,21.09-21.09v-4.356h0.002C330.251,204.4,320.808,194.957,309.16,194.957z"
                />
              </g>
            </g>
          </svg>